<?xml version="1.0" encoding="UTF-8" standalone="no"?>
<svg width="28px" height="28px" viewBox="0 0 28 28" version="1.1" xmlns="http://www.w3.org/2000/svg" xmlns:xlink="http://www.w3.org/1999/xlink">
    <!-- Generator: Sketch 3.8.3 (29802) - http://www.bohemiancoding.com/sketch -->
    <title>GSL-replace-cassette</title>
    <desc>Created with Sketch.</desc>
    <defs></defs>
    <g id="Page-1" stroke="none" stroke-width="1" fill="none" fill-rule="evenodd">
        <path d="M10.9960938,8.8515625 L11.4179688,8.8515625 C11.8554709,8.8515625 12.2304672,9.00781094 12.5429688,9.3203125 C12.8554703,9.63281406 13.0117188,10.0039041 13.0117188,10.4335938 C13.0117188,10.8945336 12.8535172,11.2773422 12.5371094,11.5820312 C12.2207015,11.8867203 11.8476584,12.0390625 11.4179688,12.0390625 L10.9960938,12.0390625 C10.5585916,12.0390625 10.1835953,11.8828141 9.87109375,11.5703125 C9.55859219,11.2578109 9.40234375,10.8867209 9.40234375,10.4570312 C9.40234375,9.99609145 9.56054529,9.61328277 9.87695312,9.30859375 C10.193361,9.00390473 10.5664041,8.8515625 10.9960938,8.8515625 L10.9960938,8.8515625 Z M10.9960938,16.1757812 L11.4179688,16.1757812 C11.8554709,16.1757812 12.2304672,16.3300766 12.5429688,16.6386719 C12.8554703,16.9472672 13.0117188,17.3203103 13.0117188,17.7578125 C13.0117188,18.2109398 12.8535172,18.5898422 12.5371094,18.8945312 C12.2207015,19.1992203 11.8476584,19.3515625 11.4179688,19.3515625 L10.9960938,19.3515625 C10.5585916,19.3515625 10.1835953,19.1972672 9.87109375,18.8886719 C9.55859219,18.5800766 9.40234375,18.2070334 9.40234375,17.7695312 C9.40234375,17.316404 9.56054529,16.9375015 9.87695312,16.6328125 C10.193361,16.3281235 10.5664041,16.1757812 10.9960938,16.1757812 L10.9960938,16.1757812 Z" id=":" fill="#FFFFFF"></path>
        <path d="M16.9960938,8.8515625 L17.4179688,8.8515625 C17.8554709,8.8515625 18.2304672,9.00781094 18.5429688,9.3203125 C18.8554703,9.63281406 19.0117188,10.0039041 19.0117188,10.4335938 C19.0117188,10.8945336 18.8535172,11.2773422 18.5371094,11.5820312 C18.2207015,11.8867203 17.8476584,12.0390625 17.4179688,12.0390625 L16.9960938,12.0390625 C16.5585916,12.0390625 16.1835953,11.8828141 15.8710938,11.5703125 C15.5585922,11.2578109 15.4023438,10.8867209 15.4023438,10.4570312 C15.4023438,9.99609145 15.5605453,9.61328277 15.8769531,9.30859375 C16.193361,9.00390473 16.5664041,8.8515625 16.9960938,8.8515625 L16.9960938,8.8515625 Z M16.9960938,16.1757812 L17.4179688,16.1757812 C17.8554709,16.1757812 18.2304672,16.3300766 18.5429688,16.6386719 C18.8554703,16.9472672 19.0117188,17.3203103 19.0117188,17.7578125 C19.0117188,18.2109398 18.8535172,18.5898422 18.5371094,18.8945312 C18.2207015,19.1992203 17.8476584,19.3515625 17.4179688,19.3515625 L16.9960938,19.3515625 C16.5585916,19.3515625 16.1835953,19.1972672 15.8710938,18.8886719 C15.5585922,18.5800766 15.4023438,18.2070334 15.4023438,17.7695312 C15.4023438,17.316404 15.5605453,16.9375015 15.8769531,16.6328125 C16.193361,16.3281235 16.5664041,16.1757812 16.9960938,16.1757812 L16.9960938,16.1757812 Z" id=":" fill="#FFFFFF"></path>
    </g>
</svg>