<?xml version="1.0" encoding="UTF-8" standalone="no"?>
<svg width="28px" height="28px" viewBox="0 0 28 28" version="1.1" xmlns="http://www.w3.org/2000/svg" xmlns:xlink="http://www.w3.org/1999/xlink">
    <!-- Generator: Sketch 3.8.3 (29802) - http://www.bohemiancoding.com/sketch -->
    <title>GSL-slice-start</title>
    <desc>Created with Sketch.</desc>
    <defs></defs>
    <g id="Page-1" stroke="none" stroke-width="1" fill="none" fill-rule="evenodd">
        <path d="M17.5546875,7.74902344 L17.5546875,7.42089844 C17.5546875,7.18652227 17.5996089,7.0185552 17.6894531,6.91699219 C17.7792973,6.81542918 17.8984368,6.76464844 18.046875,6.76464844 C18.1953132,6.76464844 18.3144527,6.81542918 18.4042969,6.91699219 C18.4941411,7.0185552 18.5390625,7.18652227 18.5390625,7.42089844 L18.5390625,9.92871094 C18.5390625,10.1630871 18.4941411,10.3310542 18.4042969,10.4326172 C18.3144527,10.5341802 18.1953132,10.5849609 18.046875,10.5849609 C17.9062493,10.5849609 17.7910161,10.5380864 17.7011719,10.4443359 C17.6113277,10.3505855 17.5625,10.1982432 17.5546875,9.98730469 C17.5156248,9.33105141 17.1777376,8.74121355 16.5410156,8.21777344 C15.9042937,7.69433332 15.0703177,7.43261719 14.0390625,7.43261719 C12.9531196,7.43261719 12.089847,7.71191127 11.4492188,8.27050781 C10.8085905,8.82910436 10.4882812,9.4873009 10.4882812,10.2451172 C10.4882812,10.6357441 10.5781241,10.9912093 10.7578125,11.3115234 C10.9375009,11.6318375 11.1757798,11.8916006 11.4726562,12.0908203 C11.7695327,12.2900401 12.1054669,12.4501947 12.4804688,12.5712891 C12.8554706,12.6923834 13.4414023,12.8193353 14.2382812,12.9521484 C15.5742254,13.1708995 16.4960912,13.3935536 17.0039062,13.6201172 C17.6835971,13.9248062 18.1972639,14.346677 18.5449219,14.8857422 C18.8925799,15.4248074 19.0664062,16.0615198 19.0664062,16.7958984 C19.0664062,17.9209041 18.617192,18.8798788 17.71875,19.6728516 C16.820308,20.4658243 15.6093826,20.8623047 14.0859375,20.8623047 C12.3749914,20.8623047 11.0078176,20.3271538 9.984375,19.2568359 L9.984375,19.8193359 C9.984375,20.0537121 9.93945357,20.2216792 9.84960938,20.3232422 C9.75976518,20.4248052 9.64062574,20.4755859 9.4921875,20.4755859 C9.3515618,20.4755859 9.23437547,20.4248052 9.140625,20.3232422 C9.04687453,20.2216792 9,20.0537121 9,19.8193359 L9,17.1005859 C9,16.8583972 9.04492143,16.6865239 9.13476562,16.5849609 C9.22460982,16.4833979 9.34374926,16.4326172 9.4921875,16.4326172 C9.6328132,16.4326172 9.74804643,16.4794917 9.83789062,16.5732422 C9.92773482,16.6669927 9.97656246,16.8193349 9.984375,17.0302734 C10.0234377,17.749027 10.4081995,18.4033174 11.1386719,18.9931641 C11.8691443,19.5830108 12.8515563,19.8779297 14.0859375,19.8779297 C15.3203187,19.8779297 16.2949183,19.569339 17.0097656,18.9521484 C17.7246129,18.3349579 18.0820312,17.6044964 18.0820312,16.7607422 C18.0820312,16.2451146 17.9453139,15.7861348 17.671875,15.3837891 C17.3984361,14.9814433 16.9921902,14.6630871 16.453125,14.4287109 C16.0781231,14.2646476 15.2968809,14.0810557 14.109375,13.8779297 C12.4765543,13.6044908 11.3007848,13.1865262 10.5820312,12.6240234 C9.86327766,12.0615206 9.50390625,11.2607474 9.50390625,10.2216797 C9.50390625,9.19042453 9.9160115,8.30371465 10.7402344,7.56152344 C11.5644572,6.81933223 12.652337,6.44824219 14.0039062,6.44824219 C15.3789131,6.44824219 16.562495,6.8818316 17.5546875,7.74902344 L17.5546875,7.74902344 Z" id="S" fill="#FFFFFF"></path>
    </g>
</svg>