<?xml version="1.0" encoding="UTF-8" standalone="no"?>
<svg width="28px" height="28px" viewBox="0 0 28 28" version="1.1" xmlns="http://www.w3.org/2000/svg" xmlns:xlink="http://www.w3.org/1999/xlink">
    <!-- Generator: Sketch 3.8.3 (29802) - http://www.bohemiancoding.com/sketch -->
    <title>GSL-invert</title>
    <desc>Created with Sketch.</desc>
    <defs></defs>
    <g id="Page-1" stroke="none" stroke-width="1" fill="none" fill-rule="evenodd">
        <path d="M15.390625,7.34765625 L14.9453125,15.2929688 C14.9296874,15.54297 14.8769536,15.7187495 14.7871094,15.8203125 C14.6972652,15.9218755 14.5859382,15.9726562 14.453125,15.9726562 C14.3124993,15.9726562 14.1972661,15.9218755 14.1074219,15.8203125 C14.0175777,15.7187495 13.9648438,15.54297 13.9492188,15.2929688 L13.515625,7.34765625 C13.4999999,7.16015531 13.4921875,7.02343793 13.4921875,6.9375 C13.4921875,6.67187367 13.5839835,6.44921965 13.7675781,6.26953125 C13.9511728,6.08984285 14.1796861,6 14.453125,6 C14.7265639,6 14.9531241,6.08984285 15.1328125,6.26953125 C15.3125009,6.44921965 15.4023438,6.67577988 15.4023438,6.94921875 C15.4023438,7.02734414 15.3984375,7.16015531 15.390625,7.34765625 L15.390625,7.34765625 Z M14.21875,18.9726562 L14.6757812,18.9726562 C15.0117204,18.9726562 15.2988269,19.0917957 15.5371094,19.3300781 C15.7753918,19.5683606 15.8945312,19.8554671 15.8945312,20.1914062 C15.8945312,20.535158 15.7734387,20.8242176 15.53125,21.0585938 C15.2890613,21.2929699 15.0039079,21.4101562 14.6757812,21.4101562 L14.21875,21.4101562 C13.8828108,21.4101562 13.5957043,21.2910168 13.3574219,21.0527344 C13.1191394,20.8144519 13,20.5312516 13,20.203125 C13,19.8515607 13.1210925,19.5585949 13.3632812,19.3242188 C13.60547,19.0898426 13.8906234,18.9726562 14.21875,18.9726562 L14.21875,18.9726562 Z" id="!" fill="#FFFFFF"></path>
    </g>
</svg>