<?xml version="1.0" encoding="UTF-8" standalone="no"?>
<svg width="28px" height="28px" viewBox="0 0 28 28" version="1.1" xmlns="http://www.w3.org/2000/svg" xmlns:xlink="http://www.w3.org/1999/xlink">
    <!-- Generator: Sketch 3.8.3 (29802) - http://www.bohemiancoding.com/sketch -->
    <title>GSL-gene-locus</title>
    <desc>Created with Sketch.</desc>
    <defs></defs>
    <g id="Page-1" stroke="none" stroke-width="1" fill="none" fill-rule="evenodd">
        <path d="M17.046875,9.1328125 L17.046875,7.328125 L19.3554688,7.328125 C19.5898449,7.328125 19.757812,7.37499953 19.859375,7.46875 C19.960938,7.56250047 20.0117188,7.68359301 20.0117188,7.83203125 C20.0117188,7.97265695 19.960938,8.08984328 19.859375,8.18359375 C19.757812,8.27734422 19.5898449,8.32421875 19.3554688,8.32421875 L18.03125,8.32421875 L18.03125,18.15625 C18.03125,18.8125033 17.8906264,19.3984349 17.609375,19.9140625 C17.4218741,20.2578142 17.1093772,20.6132794 16.671875,20.9804688 C16.2343728,21.3476581 15.8359393,21.6093742 15.4765625,21.765625 C15.1171857,21.9218758 14.6367218,22 14.0351562,22 L11.2460938,22 C11.0117176,22 10.8437505,21.9550786 10.7421875,21.8652344 C10.6406245,21.7753902 10.5898438,21.6562507 10.5898438,21.5078125 C10.5898438,21.3593743 10.6406245,21.2382817 10.7421875,21.1445312 C10.8437505,21.0507808 11.0117176,21.0039062 11.2460938,21.0039062 L14.0703125,21.015625 C14.6484404,21.015625 15.1699196,20.867189 15.6347656,20.5703125 C16.0996117,20.273436 16.4843735,19.8398466 16.7890625,19.2695312 C16.9609384,18.9414046 17.046875,18.52344 17.046875,18.015625 L17.046875,15.0625 C15.9921822,16.5078197 14.6328208,17.2304688 12.96875,17.2304688 C11.6171807,17.2304688 10.4511768,16.7285206 9.47070312,15.7246094 C8.49022947,14.7206981 8,13.5117258 8,12.0976562 C8,10.6835867 8.49022947,9.4765675 9.47070312,8.4765625 C10.4511768,7.4765575 11.6171807,6.9765625 12.96875,6.9765625 C14.6328208,6.9765625 15.9921822,7.69530531 17.046875,9.1328125 L17.046875,9.1328125 Z M17.046875,12.0976562 C17.046875,10.9414005 16.6503946,9.96484773 15.8574219,9.16796875 C15.0644492,8.37108977 14.117193,7.97265625 13.015625,7.97265625 C11.914057,7.97265625 10.9687539,8.37304287 10.1796875,9.17382812 C9.39062105,9.97461338 8.99609375,10.949213 8.99609375,12.0976562 C8.99609375,13.253912 9.39062105,14.2324179 10.1796875,15.0332031 C10.9687539,15.8339884 11.914057,16.234375 13.015625,16.234375 C14.117193,16.234375 15.0644492,15.8339884 15.8574219,15.0332031 C16.6503946,14.2324179 17.046875,13.253912 17.046875,12.0976562 L17.046875,12.0976562 Z" id="g" fill="#FFFFFF"></path>
    </g>
</svg>