<?xml version="1.0" encoding="UTF-8" standalone="no"?>
<svg width="28px" height="28px" viewBox="0 0 28 28" version="1.1" xmlns="http://www.w3.org/2000/svg" xmlns:xlink="http://www.w3.org/1999/xlink">
    <!-- Generator: Sketch 3.8.3 (29802) - http://www.bohemiancoding.com/sketch -->
    <title>GSL-orf</title>
    <desc>Created with Sketch.</desc>
    <defs></defs>
    <g id="Page-1" stroke="none" stroke-width="1" fill="none" fill-rule="evenodd">
        <path d="M20.0039062,13.3515625 C20.0039062,14.85157 19.4668022,16.1328072 18.3925781,17.1953125 C17.318354,18.2578178 16.0234451,18.7890625 14.5078125,18.7890625 C12.9765548,18.7890625 11.6757866,18.2558647 10.6054688,17.1894531 C9.5351509,16.1230415 9,14.8437575 9,13.3515625 C9,11.851555 9.5351509,10.5683647 10.6054688,9.50195312 C11.6757866,8.43554154 12.9765548,7.90234375 14.5078125,7.90234375 C16.0234451,7.90234375 17.318354,8.43358844 18.3925781,9.49609375 C19.4668022,10.5585991 20.0039062,11.8437425 20.0039062,13.3515625 L20.0039062,13.3515625 Z M19.0078125,13.3515625 C19.0078125,12.1171813 18.5683638,11.0664106 17.6894531,10.1992188 C16.8105425,9.33202691 15.7461,8.8984375 14.4960938,8.8984375 C13.2460875,8.8984375 12.181645,9.33398002 11.3027344,10.2050781 C10.4238237,11.0761762 9.984375,12.1249939 9.984375,13.3515625 C9.984375,14.5703186 10.4238237,15.6171831 11.3027344,16.4921875 C12.181645,17.3671919 13.2460875,17.8046875 14.4960938,17.8046875 C15.7461,17.8046875 16.8105425,17.369145 17.6894531,16.4980469 C18.5683638,15.6269488 19.0078125,14.5781311 19.0078125,13.3515625 L19.0078125,13.3515625 Z" id="o" fill="#FFFFFF"></path>
    </g>
</svg>