<?xml version="1.0" encoding="UTF-8" standalone="no"?>
<svg width="28px" height="28px" viewBox="0 0 28 28" version="1.1" xmlns="http://www.w3.org/2000/svg" xmlns:xlink="http://www.w3.org/1999/xlink">
    <!-- Generator: Sketch 3.8.3 (29802) - http://www.bohemiancoding.com/sketch -->
    <title>GSL-knockout</title>
    <desc>Created with Sketch.</desc>
    <defs></defs>
    <g id="Page-1" stroke="none" stroke-width="1" fill="none" fill-rule="evenodd">
        <path d="M14.1953125,11.0117188 L18.5195312,16.4375 C18.660157,16.6171884 18.7304688,16.7617182 18.7304688,16.8710938 C18.7304688,17.0117195 18.6816411,17.1289058 18.5839844,17.2226562 C18.4863276,17.3164067 18.3671882,17.3632812 18.2265625,17.3632812 C18.0703117,17.3632812 17.9062509,17.2617198 17.734375,17.0585938 L14.1953125,12.5585938 L10.65625,17.0585938 C10.4921867,17.2695323 10.332032,17.375 10.1757812,17.375 C10.0351555,17.375 9.91601611,17.3261724 9.81835938,17.2285156 C9.72070264,17.1308589 9.671875,17.0117195 9.671875,16.8710938 C9.671875,16.7617182 9.7421868,16.6171884 9.8828125,16.4375 L14.1953125,11.0117188 Z" id="^" fill="#FFFFFF"></path>
    </g>
</svg>