<?xml version="1.0" encoding="UTF-8" standalone="no"?>
<svg width="28px" height="28px" viewBox="0 0 28 28" version="1.1" xmlns="http://www.w3.org/2000/svg" xmlns:xlink="http://www.w3.org/1999/xlink">
    <!-- Generator: Sketch 3.8.3 (29802) - http://www.bohemiancoding.com/sketch -->
    <title>GSL-upstream</title>
    <desc>Created with Sketch.</desc>
    <defs></defs>
    <g id="Page-1" stroke="none" stroke-width="1" fill="none" fill-rule="evenodd">
        <path d="M17.5039062,19.1484375 L17.5039062,17.7070312 C16.1601495,18.9257873 14.7070391,19.5351562 13.1445312,19.5351562 C12.1835889,19.5351562 11.4531275,19.2734401 10.953125,18.75 C10.3046843,18.0624966 9.98046875,17.2617233 9.98046875,16.3476562 L9.98046875,9.99609375 L8.65625,9.99609375 C8.42187383,9.99609375 8.25390676,9.94921922 8.15234375,9.85546875 C8.05078074,9.76171828 8,9.64062574 8,9.4921875 C8,9.3515618 8.05078074,9.23437547 8.15234375,9.140625 C8.25390676,9.04687453 8.42187383,9 8.65625,9 L10.9648438,9 L10.9648438,16.3476562 C10.9648438,16.9882845 11.1679667,17.5156229 11.5742188,17.9296875 C11.9804708,18.3437521 12.4882782,18.5507812 13.0976562,18.5507812 C14.6992268,18.5507812 16.1679621,17.8164136 17.5039062,16.3476562 L17.5039062,9.99609375 L15.6875,9.99609375 C15.4531238,9.99609375 15.2851568,9.94921922 15.1835938,9.85546875 C15.0820307,9.76171828 15.03125,9.64062574 15.03125,9.4921875 C15.03125,9.3515618 15.0820307,9.23437547 15.1835938,9.140625 C15.2851568,9.04687453 15.4531238,9 15.6875,9 L18.4882812,9 L18.4882812,18.1640625 L19.3203125,18.1640625 C19.5546887,18.1640625 19.7226557,18.2089839 19.8242188,18.2988281 C19.9257818,18.3886723 19.9765625,18.5078118 19.9765625,18.65625 C19.9765625,18.7968757 19.9257818,18.914062 19.8242188,19.0078125 C19.7226557,19.101563 19.5546887,19.1484375 19.3203125,19.1484375 L17.5039062,19.1484375 Z" id="u" fill="#FFFFFF"></path>
    </g>
</svg>