<?xml version="1.0" encoding="UTF-8" standalone="no"?>
<svg width="28px" height="28px" viewBox="0 0 28 28" version="1.1" xmlns="http://www.w3.org/2000/svg" xmlns:xlink="http://www.w3.org/1999/xlink">
    <!-- Generator: Sketch 3.8.3 (29802) - http://www.bohemiancoding.com/sketch -->
    <title>GSL-replace</title>
    <desc>Created with Sketch.</desc>
    <defs></defs>
    <g id="Page-1" stroke="none" stroke-width="1" fill="none" fill-rule="evenodd">
        <path d="M20.2539062,14.1679688 L9.61328125,20.0976562 C9.44140539,20.1914067 9.31250043,20.2382812 9.2265625,20.2382812 C9.09374934,20.2382812 8.97851611,20.1894536 8.88085938,20.0917969 C8.78320264,19.9941401 8.734375,19.8789069 8.734375,19.7460938 C8.734375,19.5507803 8.86718617,19.378907 9.1328125,19.2304688 L18.25,14.1679688 L9.14453125,9.10546875 C8.87890492,8.95703051 8.74609375,8.78515723 8.74609375,8.58984375 C8.74609375,8.45703059 8.79492139,8.34179736 8.89257812,8.24414062 C8.99023486,8.14648389 9.10546809,8.09765625 9.23828125,8.09765625 C9.32421918,8.09765625 9.45312414,8.14453078 9.625,8.23828125 L20.2539062,14.1679688 Z" id="&gt;" fill="#FFFFFF"></path>
    </g>
</svg>