<?xml version="1.0" encoding="UTF-8" standalone="no"?>
<svg width="28px" height="28px" viewBox="0 0 28 28" version="1.1" xmlns="http://www.w3.org/2000/svg" xmlns:xlink="http://www.w3.org/1999/xlink">
    <!-- Generator: Sketch 3.8.3 (29802) - http://www.bohemiancoding.com/sketch -->
    <title>GSL-variable</title>
    <desc>Created with Sketch.</desc>
    <defs></defs>
    <g id="Page-1" stroke="none" stroke-width="1" fill="none" fill-rule="evenodd">
        <path d="M17.0664062,17.4609375 L17.0664062,17.3320312 C16.8710928,17.3632814 16.6914071,17.3867187 16.5273438,17.4023438 C16.3632804,17.4179688 16.2109382,17.4257812 16.0703125,17.4257812 C15.1093702,17.4257812 14.3222687,17.1289092 13.7089844,16.5351562 C13.0957001,15.9414033 12.7890625,15.2226605 12.7890625,14.3789062 C12.7890625,13.4179639 13.1699181,12.5918003 13.9316406,11.9003906 C14.6933632,11.2089809 15.7382746,10.8632812 17.0664062,10.8632812 L17.0664062,9.7265625 C17.0664062,8.8671832 16.8007839,8.16406523 16.2695312,7.6171875 C15.7382786,7.07030977 15.0742227,6.796875 14.2773438,6.796875 C13.7226535,6.796875 13.1992212,6.93749859 12.7070312,7.21875 C12.3710921,7.41406348 12.0937511,7.65234234 11.875,7.93359375 C11.4999981,8.42578371 11.1777357,9.01757467 10.9082031,9.70898438 C10.6386705,10.4003941 10.5039062,11.2578074 10.5039062,12.28125 L10.5039062,16.1601562 C10.5039062,17.6757888 10.8535121,18.9511667 11.5527344,19.9863281 C12.2519566,21.0214896 13.1953066,21.5390625 14.3828125,21.5390625 C15.5546934,21.5390625 16.4335908,21.2617215 17.0195312,20.7070312 C17.1523444,20.5820306 17.2812494,20.5195312 17.40625,20.5195312 C17.5390632,20.5195312 17.6523433,20.5664058 17.7460938,20.6601562 C17.8398442,20.7539067 17.8867188,20.8632806 17.8867188,20.9882812 C17.8867188,21.2382825 17.6523461,21.5117173 17.1835938,21.8085938 C16.43359,22.2851586 15.4531311,22.5234375 14.2421875,22.5234375 C13.6171844,22.5234375 13.0449245,22.4082043 12.5253906,22.1777344 C12.0058568,21.9472645 11.5703143,21.6289083 11.21875,21.2226562 C10.9999989,20.9804675 10.7382828,20.5664092 10.4335938,19.9804688 C10.1289047,19.3945283 9.91406313,18.8750023 9.7890625,18.421875 C9.6093741,17.7890593 9.51953125,17.0351606 9.51953125,16.1601562 L9.51953125,12.2226562 C9.51953125,10.2226463 10.0507759,8.58985008 11.1132812,7.32421875 C11.9570355,6.30858867 12.9960876,5.80078125 14.2304688,5.80078125 C14.871097,5.80078125 15.4609348,5.93554553 16,6.20507812 C16.5390652,6.47461072 17.0156229,6.92382498 17.4296875,7.55273438 C17.8437521,8.18164377 18.0507812,8.9062459 18.0507812,9.7265625 L18.0507812,16.4765625 C18.207032,16.4921876 18.3242184,16.5429683 18.4023438,16.6289062 C18.4804691,16.7148442 18.5195312,16.8242181 18.5195312,16.9570312 C18.5195312,17.0585943 18.4941409,17.1503902 18.4433594,17.2324219 C18.3925779,17.3144535 18.3300785,17.3730467 18.2558594,17.4082031 C18.1816403,17.4433596 18.0507822,17.4609375 17.8632812,17.4609375 L17.0664062,17.4609375 Z M17.0664062,11.8359375 C16.0351511,11.84375 15.2285185,12.10156 14.6464844,12.609375 C14.0644502,13.11719 13.7734375,13.6992155 13.7734375,14.3554688 C13.7734375,14.9492217 13.986326,15.4453105 14.4121094,15.84375 C14.8378928,16.2421895 15.4335899,16.4414062 16.1992188,16.4414062 C16.3320319,16.4414062 16.4707024,16.4316407 16.6152344,16.4121094 C16.7597663,16.392578 16.9101555,16.3671877 17.0664062,16.3359375 L17.0664062,11.8359375 Z" id="@" fill="#FFFFFF"></path>
    </g>
</svg>