<?xml version="1.0" encoding="UTF-8" standalone="no"?>
<svg width="28px" height="28px" viewBox="0 0 28 28" version="1.1" xmlns="http://www.w3.org/2000/svg" xmlns:xlink="http://www.w3.org/1999/xlink">
    <!-- Generator: Sketch 3.8.3 (29802) - http://www.bohemiancoding.com/sketch -->
    <title>GSL-orf-fusible</title>
    <desc>Created with Sketch.</desc>
    <defs></defs>
    <g id="Page-1" stroke="none" stroke-width="1" fill="none" fill-rule="evenodd">
        <path d="M14.03125,11.8476562 L14.03125,20.015625 L18.3554688,20.015625 C18.5898449,20.015625 18.757812,20.0605464 18.859375,20.1503906 C18.960938,20.2402348 19.0117188,20.3593743 19.0117188,20.5078125 C19.0117188,20.6484382 18.960938,20.7656245 18.859375,20.859375 C18.757812,20.9531255 18.5898449,21 18.3554688,21 L10.65625,21 C10.4218738,21 10.2539068,20.9531255 10.1523438,20.859375 C10.0507807,20.7656245 10,20.6484382 10,20.5078125 C10,20.3593743 10.0507807,20.2402348 10.1523438,20.1503906 C10.2539068,20.0605464 10.4218738,20.015625 10.65625,20.015625 L13.0351562,20.015625 L13.0351562,11.8476562 L10.9023438,11.8476562 C10.6679676,11.8476562 10.5000005,11.8007817 10.3984375,11.7070312 C10.2968745,11.6132808 10.2460938,11.4921882 10.2460938,11.34375 C10.2460938,11.2031243 10.2968745,11.085938 10.3984375,10.9921875 C10.5000005,10.898437 10.6679676,10.8515625 10.9023438,10.8515625 L13.0351562,10.8515625 L13.0351562,9.36328125 C13.0351562,8.53515211 13.3710904,7.8164093 14.0429688,7.20703125 C14.7148471,6.5976532 15.6054632,6.29296875 16.7148438,6.29296875 C17.6445359,6.29296875 18.6367135,6.37890539 19.6914062,6.55078125 C20.0898457,6.61328156 20.3300777,6.68749957 20.4121094,6.7734375 C20.494141,6.85937543 20.5351562,6.97265555 20.5351562,7.11328125 C20.5351562,7.25390695 20.4882817,7.36914018 20.3945312,7.45898438 C20.3007808,7.54882857 20.175782,7.59375 20.0195312,7.59375 C19.9570309,7.59375 19.8515632,7.58203137 19.703125,7.55859375 C18.5234316,7.37890535 17.5273478,7.2890625 16.7148438,7.2890625 C15.8554645,7.2890625 15.1933617,7.49999789 14.7285156,7.921875 C14.2636696,8.34375211 14.03125,8.82421605 14.03125,9.36328125 L14.03125,10.8515625 L18.6367188,10.8515625 C18.8710949,10.8515625 19.039062,10.898437 19.140625,10.9921875 C19.242188,11.085938 19.2929688,11.2070305 19.2929688,11.3554688 C19.2929688,11.4960945 19.242188,11.6132808 19.140625,11.7070312 C19.039062,11.8007817 18.8710949,11.8476562 18.6367188,11.8476562 L14.03125,11.8476562 Z" id="f" fill="#FFFFFF"></path>
    </g>
</svg>