<?xml version="1.0" encoding="UTF-8" standalone="no"?>
<svg width="28px" height="28px" viewBox="0 0 28 28" version="1.1" xmlns="http://www.w3.org/2000/svg" xmlns:xlink="http://www.w3.org/1999/xlink">
    <!-- Generator: Sketch 3.8.3 (29802) - http://www.bohemiancoding.com/sketch -->
    <title>GSL-slice-end</title>
    <desc>Created with Sketch.</desc>
    <defs></defs>
    <g id="Page-1" stroke="none" stroke-width="1" fill="none" fill-rule="evenodd">
        <path d="M10.9648438,14.234375 L10.9648438,19.8710938 L18.5351562,19.8710938 L18.5351562,16.9648438 C18.5351562,16.7304676 18.5800777,16.5625005 18.6699219,16.4609375 C18.7597661,16.3593745 18.8789055,16.3085938 19.0273438,16.3085938 C19.175782,16.3085938 19.2949214,16.3593745 19.3847656,16.4609375 C19.4746098,16.5625005 19.5195312,16.7304676 19.5195312,16.9648438 L19.5195312,20.8554688 L8.65625,20.8554688 C8.42187383,20.8554688 8.25390676,20.8085942 8.15234375,20.7148438 C8.05078074,20.6210933 8,20.503907 8,20.3632812 C8,20.214843 8.05078074,20.0957036 8.15234375,20.0058594 C8.25390676,19.9160152 8.42187383,19.8710938 8.65625,19.8710938 L9.98046875,19.8710938 L9.98046875,8.12890625 L8.65625,8.12890625 C8.42187383,8.12890625 8.25390676,8.08398482 8.15234375,7.99414062 C8.05078074,7.90429643 8,7.78515699 8,7.63671875 C8,7.48828051 8.05078074,7.36914107 8.15234375,7.27929688 C8.25390676,7.18945268 8.42187383,7.14453125 8.65625,7.14453125 L19.0039062,7.14453125 L19.0039062,10.53125 C19.0039062,10.7656262 18.9589848,10.9335932 18.8691406,11.0351562 C18.7792964,11.1367193 18.660157,11.1875 18.5117188,11.1875 C18.3632805,11.1875 18.2441411,11.1367193 18.1542969,11.0351562 C18.0644527,10.9335932 18.0195312,10.7656262 18.0195312,10.53125 L18.0195312,8.12890625 L10.9648438,8.12890625 L10.9648438,13.25 L14.4921875,13.25 L14.4921875,12.1367188 C14.4921875,11.9023426 14.539062,11.7343755 14.6328125,11.6328125 C14.726563,11.5312495 14.8476555,11.4804688 14.9960938,11.4804688 C15.1367195,11.4804688 15.2539058,11.5312495 15.3476562,11.6328125 C15.4414067,11.7343755 15.4882812,11.9023426 15.4882812,12.1367188 L15.4882812,15.3476562 C15.4882812,15.5820324 15.4414067,15.7499995 15.3476562,15.8515625 C15.2539058,15.9531255 15.1367195,16.0039062 14.9960938,16.0039062 C14.8476555,16.0039062 14.726563,15.9531255 14.6328125,15.8515625 C14.539062,15.7499995 14.4921875,15.5820324 14.4921875,15.3476562 L14.4921875,14.234375 L10.9648438,14.234375 Z" id="E" fill="#FFFFFF"></path>
    </g>
</svg>