<?xml version="1.0" encoding="UTF-8" standalone="no"?>
<svg width="28px" height="28px" viewBox="0 0 28 28" version="1.1" xmlns="http://www.w3.org/2000/svg" xmlns:xlink="http://www.w3.org/1999/xlink">
    <!-- Generator: Sketch 3.8.3 (29802) - http://www.bohemiancoding.com/sketch -->
    <title>GSL-custom-peptides</title>
    <desc>Created with Sketch.</desc>
    <defs></defs>
    <g id="Page-1" stroke="none" stroke-width="1" fill="none" fill-rule="evenodd">
        <path d="M13.6914062,6.9609375 L13.6914062,5.71875 C13.6914062,5.47656129 13.7363277,5.30468801 13.8261719,5.203125 C13.9160161,5.10156199 14.0351555,5.05078125 14.1835938,5.05078125 C14.332032,5.05078125 14.4511714,5.10156199 14.5410156,5.203125 C14.6308598,5.30468801 14.6757812,5.47656129 14.6757812,5.71875 L14.6757812,6.9609375 C15.2070339,7.00781273 15.6445295,7.09179627 15.9882812,7.21289062 C16.332033,7.33398498 16.7382789,7.55077969 17.2070312,7.86328125 C17.2148438,7.66796777 17.2656245,7.52343797 17.359375,7.4296875 C17.4531255,7.33593703 17.5664056,7.2890625 17.6992188,7.2890625 C17.847657,7.2890625 17.9687495,7.33984324 18.0625,7.44140625 C18.1562505,7.54296926 18.203125,7.71093633 18.203125,7.9453125 L18.203125,9.41015625 C18.203125,9.64453242 18.1562505,9.81249949 18.0625,9.9140625 C17.9687495,10.0156255 17.847657,10.0664062 17.6992188,10.0664062 C17.5742181,10.0664062 17.4687504,10.025391 17.3828125,9.94335938 C17.2968746,9.86132771 17.2382814,9.72265723 17.2070312,9.52734375 C17.160156,9.16015441 16.9179709,8.82812648 16.4804688,8.53125 C15.8398405,8.10937289 15.0859418,7.8984375 14.21875,7.8984375 C13.3359331,7.8984375 12.6074247,8.15624742 12.0332031,8.671875 C11.4589815,9.18750258 11.171875,9.76952801 11.171875,10.4179688 C11.171875,11.0664095 11.4257787,11.5624983 11.9335938,11.90625 C12.3164082,12.1718763 13.1230407,12.4199207 14.3535156,12.6503906 C15.5839905,12.8808605 16.4179666,13.0976552 16.8554688,13.3007812 C17.4804719,13.5742201 17.9472641,13.9453102 18.2558594,14.4140625 C18.5644547,14.8828148 18.71875,15.4492154 18.71875,16.1132812 C18.71875,17.0039107 18.3710972,17.787106 17.6757812,18.4628906 C16.9804653,19.1386753 15.9804753,19.5429681 14.6757812,19.6757812 L14.6757812,22.5703125 C14.6757812,22.8125012 14.6308598,22.9843745 14.5410156,23.0859375 C14.4511714,23.1875005 14.332032,23.2382812 14.1835938,23.2382812 C14.0351555,23.2382812 13.9160161,23.1875005 13.8261719,23.0859375 C13.7363277,22.9843745 13.6914062,22.8125012 13.6914062,22.5703125 L13.6914062,19.6757812 C12.4882752,19.5976559 11.4765666,19.2070348 10.65625,18.5039062 C10.65625,18.847658 10.6425783,19.0566403 10.6152344,19.1308594 C10.5878905,19.2050785 10.5312504,19.2714841 10.4453125,19.3300781 C10.3593746,19.3886722 10.2656255,19.4179688 10.1640625,19.4179688 C10.0234368,19.4179688 9.90625047,19.367188 9.8125,19.265625 C9.71874953,19.164062 9.671875,18.9960949 9.671875,18.7617188 L9.671875,16.8398438 C9.671875,16.6054676 9.71679643,16.4355474 9.80664062,16.3300781 C9.89648482,16.2246088 10.0156243,16.171875 10.1640625,16.171875 C10.3046882,16.171875 10.4257807,16.2226557 10.5273438,16.3242188 C10.5976566,16.3945316 10.6406249,16.55078 10.65625,16.7929688 C10.7031252,17.2070333 11.0371063,17.6308572 11.6582031,18.0644531 C12.2793,18.498049 13.1210884,18.7148438 14.1835938,18.7148438 C15.2851618,18.7148438 16.1523406,18.4531276 16.7851562,17.9296875 C17.4179719,17.4062474 17.734375,16.7968785 17.734375,16.1015625 C17.734375,15.6406227 17.6171887,15.2460954 17.3828125,14.9179688 C17.1484363,14.5898421 16.7812525,14.3203136 16.28125,14.109375 C15.9531234,13.9765618 15.2656302,13.812501 14.21875,13.6171875 C12.7031174,13.320311 11.6523467,12.9375023 11.0664062,12.46875 C10.4726533,11.9999977 10.1757812,11.3125045 10.1757812,10.40625 C10.1757812,9.56249578 10.4960905,8.80859707 11.1367188,8.14453125 C11.777347,7.48046543 12.6289009,7.08593812 13.6914062,6.9609375 L13.6914062,6.9609375 Z" id="$" fill="#FFFFFF"></path>
    </g>
</svg>