<?xml version="1.0" encoding="UTF-8" standalone="no"?>
<svg width="28px" height="28px" viewBox="0 0 28 28" version="1.1" xmlns="http://www.w3.org/2000/svg" xmlns:xlink="http://www.w3.org/1999/xlink">
    <!-- Generator: Sketch 3.8.3 (29802) - http://www.bohemiancoding.com/sketch -->
    <title>GSL-mrna</title>
    <desc>Created with Sketch.</desc>
    <defs></defs>
    <g id="Page-1" stroke="none" stroke-width="1" fill="none" fill-rule="evenodd">
        <path d="M9.47265625,9.1015625 L9.47265625,10.0976562 C10.3085979,9.19921426 11.1484333,8.75 11.9921875,8.75 C12.5000025,8.75 12.9453106,8.88476428 13.328125,9.15429688 C13.7109394,9.42382947 14.0312487,9.83202852 14.2890625,10.3789062 C14.7265647,9.83202852 15.1699196,9.42382947 15.6191406,9.15429688 C16.0683616,8.88476428 16.519529,8.75 16.9726562,8.75 C17.6835973,8.75 18.2499979,8.98046645 18.671875,9.44140625 C19.2265653,10.0351592 19.5039062,10.6835902 19.5039062,11.3867188 L19.5039062,18.265625 L20.3359375,18.265625 C20.5703137,18.265625 20.7382807,18.3105464 20.8398438,18.4003906 C20.9414068,18.4902348 20.9921875,18.6093743 20.9921875,18.7578125 C20.9921875,18.8984382 20.9414068,19.0156245 20.8398438,19.109375 C20.7382807,19.2031255 20.5703137,19.25 20.3359375,19.25 L18.5195312,19.25 L18.5195312,11.4804688 C18.5195312,10.9804663 18.367189,10.5664079 18.0625,10.2382812 C17.757811,9.91015461 17.406252,9.74609375 17.0078125,9.74609375 C16.6484357,9.74609375 16.2695332,9.88085803 15.8710938,10.1503906 C15.4726543,10.4199232 15.0195338,10.9492148 14.5117188,11.7382812 L14.5117188,18.265625 L15.3320312,18.265625 C15.5664074,18.265625 15.7343745,18.3105464 15.8359375,18.4003906 C15.9375005,18.4902348 15.9882812,18.6093743 15.9882812,18.7578125 C15.9882812,18.8984382 15.9375005,19.0156245 15.8359375,19.109375 C15.7343745,19.2031255 15.5664074,19.25 15.3320312,19.25 L13.515625,19.25 L13.515625,11.5507812 C13.515625,11.0273411 13.3613297,10.5957048 13.0527344,10.2558594 C12.7441391,9.91601393 12.3984394,9.74609375 12.015625,9.74609375 C11.6640607,9.74609375 11.316408,9.85937387 10.9726562,10.0859375 C10.4960914,10.4062516 9.99609637,10.9570273 9.47265625,11.7382812 L9.47265625,18.265625 L10.3046875,18.265625 C10.5390637,18.265625 10.7070307,18.3105464 10.8085938,18.4003906 C10.9101568,18.4902348 10.9609375,18.6093743 10.9609375,18.7578125 C10.9609375,18.8984382 10.9101568,19.0156245 10.8085938,19.109375 C10.7070307,19.2031255 10.5390637,19.25 10.3046875,19.25 L7.65625,19.25 C7.42187383,19.25 7.25390676,19.2031255 7.15234375,19.109375 C7.05078074,19.0156245 7,18.8984382 7,18.7578125 C7,18.6093743 7.05078074,18.4902348 7.15234375,18.4003906 C7.25390676,18.3105464 7.42187383,18.265625 7.65625,18.265625 L8.48828125,18.265625 L8.48828125,10.0976562 L7.65625,10.0976562 C7.42187383,10.0976562 7.25390676,10.0507817 7.15234375,9.95703125 C7.05078074,9.86328078 7,9.74218824 7,9.59375 C7,9.4531243 7.05078074,9.33593797 7.15234375,9.2421875 C7.25390676,9.14843703 7.42187383,9.1015625 7.65625,9.1015625 L9.47265625,9.1015625 Z" id="m" fill="#FFFFFF"></path>
    </g>
</svg>