<?xml version="1.0" encoding="UTF-8" standalone="no"?>
<svg width="28px" height="28px" viewBox="0 0 28 28" version="1.1" xmlns="http://www.w3.org/2000/svg" xmlns:xlink="http://www.w3.org/1999/xlink">
    <!-- Generator: Sketch 3.8.3 (29802) - http://www.bohemiancoding.com/sketch -->
    <title>GSL-approx-coord</title>
    <desc>Created with Sketch.</desc>
    <defs></defs>
    <g id="Page-1" stroke="none" stroke-width="1" fill="none" fill-rule="evenodd">
        <path d="M19.0820312,13.3125 C19.1757817,13.4062505 19.2226562,13.5156244 19.2226562,13.640625 C19.2226562,13.9140639 18.8828159,14.3652312 18.203125,14.9941406 C17.5234341,15.62305 16.8984404,15.9375 16.328125,15.9375 C15.9765607,15.9375 15.6210955,15.8378916 15.2617188,15.6386719 C14.902342,15.4394521 14.3906283,15.0273469 13.7265625,14.4023438 C13.2812478,13.9804666 12.9433605,13.7031257 12.7128906,13.5703125 C12.4824207,13.4374993 12.2734384,13.3710938 12.0859375,13.3710938 C11.8593739,13.3710938 11.6445323,13.4335931 11.4414062,13.5585938 C11.1679674,13.7148445 10.7929711,14.0703097 10.3164062,14.625 C10.0898426,14.8828138 9.94335971,15.0312498 9.87695312,15.0703125 C9.81054654,15.1093752 9.73828164,15.1289062 9.66015625,15.1289062 C9.52734309,15.1289062 9.41601607,15.0839848 9.32617188,14.9941406 C9.23632768,14.9042964 9.19140625,14.7929694 9.19140625,14.6601562 C9.19140625,14.5351556 9.29296773,14.3437513 9.49609375,14.0859375 C10.0117213,13.4453093 10.4726542,13.0019544 10.8789062,12.7558594 C11.2851583,12.5097644 11.6796856,12.3867188 12.0625,12.3867188 C12.3828141,12.3867188 12.6992172,12.4628899 13.0117188,12.6152344 C13.3242203,12.7675789 13.72656,13.066404 14.21875,13.5117188 C15.0078164,14.2382849 15.4980459,14.6582026 15.6894531,14.7714844 C15.8808603,14.8847662 16.0703116,14.9414062 16.2578125,14.9414062 C16.8125028,14.9414062 17.4023406,14.5429727 18.0273438,13.7460938 C18.2539074,13.4570298 18.4062496,13.2890627 18.484375,13.2421875 C18.5625004,13.1953123 18.6523432,13.171875 18.7539062,13.171875 C18.8789069,13.171875 18.9882808,13.2187495 19.0820312,13.3125 Z" id="~" fill="#FFFFFF"></path>
    </g>
</svg>