<?xml version="1.0" encoding="UTF-8" standalone="no"?>
<svg width="28px" height="28px" viewBox="0 0 28 28" version="1.1" xmlns="http://www.w3.org/2000/svg" xmlns:xlink="http://www.w3.org/1999/xlink">
    <!-- Generator: Sketch 3.8.3 (29802) - http://www.bohemiancoding.com/sketch -->
    <title>GSL-subslice</title>
    <desc>Created with Sketch.</desc>
    <defs></defs>
    <g id="Page-1" stroke="none" stroke-width="1" fill="none" fill-rule="evenodd">
        <path d="M8.984375,6.125 L8.984375,21.8867188 L11.375,21.8867188 C11.6093762,21.8867188 11.7773432,21.9316402 11.8789062,22.0214844 C11.9804693,22.1113286 12.03125,22.230468 12.03125,22.3789062 C12.03125,22.5273445 11.9804693,22.6464839 11.8789062,22.7363281 C11.7773432,22.8261723 11.6093762,22.8710938 11.375,22.8710938 L8,22.8710938 L8,5.12890625 L11.375,5.12890625 C11.6093762,5.12890625 11.7773432,5.17578078 11.8789062,5.26953125 C11.9804693,5.36328172 12.03125,5.48437426 12.03125,5.6328125 C12.03125,5.7734382 11.9804693,5.89062453 11.8789062,5.984375 C11.7773432,6.07812547 11.6093762,6.125 11.375,6.125 L8.984375,6.125 Z M19.4258813,21.8867188 L19.4258813,6.125 L17.046975,6.125 C16.8125988,6.125 16.6446318,6.07812547 16.5430688,5.984375 C16.4415057,5.89062453 16.390725,5.7734382 16.390725,5.6328125 C16.390725,5.48437426 16.4415057,5.36328172 16.5430688,5.26953125 C16.6446318,5.17578078 16.8125988,5.12890625 17.046975,5.12890625 L20.421975,5.12890625 L20.421975,22.8710938 L17.046975,22.8710938 C16.8125988,22.8710938 16.6446318,22.8261723 16.5430688,22.7363281 C16.4415057,22.6464839 16.390725,22.5273445 16.390725,22.3789062 C16.390725,22.2382805 16.4415057,22.1210942 16.5430688,22.0273438 C16.6446318,21.9335933 16.8125988,21.8867188 17.046975,21.8867188 L19.4258813,21.8867188 Z" id="[]" fill="#FFFFFF"></path>
    </g>
</svg>