<?xml version="1.0" encoding="UTF-8" standalone="no"?>
<svg width="28px" height="28px" viewBox="0 0 28 28" version="1.1" xmlns="http://www.w3.org/2000/svg" xmlns:xlink="http://www.w3.org/1999/xlink">
    <!-- Generator: Sketch 3.8.3 (29802) - http://www.bohemiancoding.com/sketch -->
    <title>GSL-downstream</title>
    <desc>Created with Sketch.</desc>
    <defs></defs>
    <g id="Page-1" stroke="none" stroke-width="1" fill="none" fill-rule="evenodd">
        <path d="M18.546875,6.90625 L18.546875,20.6289062 L19.859375,20.6289062 C20.1015637,20.6289062 20.273437,20.6738277 20.375,20.7636719 C20.476563,20.8535161 20.5273438,20.9726555 20.5273438,21.1210938 C20.5273438,21.2617195 20.476563,21.3789058 20.375,21.4726562 C20.273437,21.5664067 20.1015637,21.6132812 19.859375,21.6132812 L17.5507812,21.6132812 L17.5507812,19.65625 C16.4101505,21.2187578 14.9609463,22 13.203125,22 C12.3124955,22 11.4589885,21.7636742 10.6425781,21.2910156 C9.82616779,20.818357 9.18164299,20.1445356 8.70898438,19.2695312 C8.23632576,18.3945269 8,17.4921921 8,16.5625 C8,15.6249953 8.23632576,14.7207075 8.70898438,13.8496094 C9.18164299,12.9785113 9.82616779,12.3046899 10.6425781,11.828125 C11.4589885,11.3515601 12.3164018,11.1132812 13.2148438,11.1132812 C14.9336023,11.1132812 16.3789004,11.8945234 17.5507812,13.4570312 L17.5507812,7.90234375 L16.2382812,7.90234375 C15.9960925,7.90234375 15.8242193,7.85546922 15.7226562,7.76171875 C15.6210932,7.66796828 15.5703125,7.54687574 15.5703125,7.3984375 C15.5703125,7.2578118 15.6210932,7.14062547 15.7226562,7.046875 C15.8242193,6.95312453 15.9960925,6.90625 16.2382812,6.90625 L18.546875,6.90625 Z M17.5507812,16.5625 C17.5507812,15.3124937 17.1289105,14.2578168 16.2851562,13.3984375 C15.441402,12.5390582 14.4375058,12.109375 13.2734375,12.109375 C12.1015566,12.109375 11.0937542,12.5390582 10.25,13.3984375 C9.40624578,14.2578168 8.984375,15.3124937 8.984375,16.5625 C8.984375,17.8046937 9.40624578,18.8574176 10.25,19.7207031 C11.0937542,20.5839887 12.1015566,21.015625 13.2734375,21.015625 C14.4375058,21.015625 15.441402,20.5839887 16.2851562,19.7207031 C17.1289105,18.8574176 17.5507812,17.8046937 17.5507812,16.5625 L17.5507812,16.5625 Z" id="d" fill="#FFFFFF"></path>
    </g>
</svg>