<?xml version="1.0" encoding="UTF-8" standalone="no"?>
<svg width="28px" height="28px" viewBox="0 0 28 28" version="1.1" xmlns="http://www.w3.org/2000/svg" xmlns:xlink="http://www.w3.org/1999/xlink">
    <!-- Generator: Sketch 3.8.3 (29802) - http://www.bohemiancoding.com/sketch -->
    <title>GSL-terminator</title>
    <desc>Created with Sketch.</desc>
    <defs></defs>
    <g id="Page-1" stroke="none" stroke-width="1" fill="none" fill-rule="evenodd">
        <path d="M11.46875,10.5625 L16.8125,10.5625 C17.0468762,10.5625 17.2148432,10.6093745 17.3164062,10.703125 C17.4179693,10.7968755 17.46875,10.917968 17.46875,11.0664062 C17.46875,11.207032 17.4179693,11.3242183 17.3164062,11.4179688 C17.2148432,11.5117192 17.0468762,11.5585938 16.8125,11.5585938 L11.46875,11.5585938 L11.46875,18.109375 C11.46875,18.6796904 11.6972633,19.1562481 12.1542969,19.5390625 C12.6113304,19.9218769 13.2812456,20.1132812 14.1640625,20.1132812 C14.8281283,20.1132812 15.5468711,20.0136729 16.3203125,19.8144531 C17.0937539,19.6152334 17.6953104,19.3906262 18.125,19.140625 C18.2812508,19.039062 18.4101557,18.9882812 18.5117188,18.9882812 C18.6367194,18.9882812 18.7460933,19.0371089 18.8398438,19.1347656 C18.9335942,19.2324224 18.9804688,19.3476556 18.9804688,19.4804688 C18.9804688,19.5976568 18.929688,19.7070307 18.828125,19.8085938 C18.5781238,20.0664075 17.9707079,20.3457016 17.0058594,20.6464844 C16.0410108,20.9472671 15.1171919,21.0976562 14.234375,21.0976562 C13.0859318,21.0976562 12.1718784,20.8281277 11.4921875,20.2890625 C10.8124966,19.7499973 10.4726562,19.0234421 10.4726562,18.109375 L10.4726562,11.5585938 L8.65625,11.5585938 C8.42187383,11.5585938 8.25390676,11.5117192 8.15234375,11.4179688 C8.05078074,11.3242183 8,11.2031257 8,11.0546875 C8,10.9140618 8.05078074,10.7968755 8.15234375,10.703125 C8.25390676,10.6093745 8.42187383,10.5625 8.65625,10.5625 L10.4726562,10.5625 L10.4726562,7.65625 C10.4726562,7.42187383 10.5195308,7.25390676 10.6132812,7.15234375 C10.7070317,7.05078074 10.824218,7 10.9648438,7 C11.113282,7 11.2343745,7.05078074 11.328125,7.15234375 C11.4218755,7.25390676 11.46875,7.42187383 11.46875,7.65625 L11.46875,10.5625 Z" id="t" fill="#FFFFFF"></path>
    </g>
</svg>