<?xml version="1.0" encoding="UTF-8" standalone="no"?>
<svg width="28px" height="28px" viewBox="0 0 28 28" version="1.1" xmlns="http://www.w3.org/2000/svg" xmlns:xlink="http://www.w3.org/1999/xlink">
    <!-- Generator: Sketch 3.8.3 (29802) - http://www.bohemiancoding.com/sketch -->
    <title>GSL-custom-bases</title>
    <desc>Created with Sketch.</desc>
    <defs></defs>
    <g id="Page-1" stroke="none" stroke-width="1" fill="none" fill-rule="evenodd">
        <path d="M18.625,5.578125 L10.703125,22.546875 C10.5703118,22.8359389 10.3984386,22.9804688 10.1875,22.9804688 C10.0546868,22.9804688 9.93945361,22.9316411 9.84179688,22.8339844 C9.74414014,22.7363276 9.6953125,22.6289068 9.6953125,22.5117188 C9.6953125,22.4179683 9.73437461,22.2890633 9.8125,22.125 L17.7226562,5.15625 C17.8085942,4.9765616 17.8906246,4.85937527 17.96875,4.8046875 C18.0468754,4.74999973 18.1406245,4.72265625 18.25,4.72265625 C18.3828132,4.72265625 18.4980464,4.77148389 18.5957031,4.86914062 C18.6933599,4.96679736 18.7421875,5.07421816 18.7421875,5.19140625 C18.7421875,5.27734418 18.7031254,5.40624914 18.625,5.578125 L18.625,5.578125 Z" id="/" fill="#FFFFFF"></path>
    </g>
</svg>