<?xml version="1.0" encoding="UTF-8" standalone="no"?>
<svg width="28px" height="28px" viewBox="0 0 28 28" version="1.1" xmlns="http://www.w3.org/2000/svg" xmlns:xlink="http://www.w3.org/1999/xlink">
    <!-- Generator: Sketch 3.8.3 (29802) - http://www.bohemiancoding.com/sketch -->
    <title>GSL-promoter</title>
    <desc>Created with Sketch.</desc>
    <defs></defs>
    <g id="Page-1" stroke="none" stroke-width="1" fill="none" fill-rule="evenodd">
        <path d="M10.9648438,7.3515625 L10.9648438,9.14453125 C11.5507842,8.4335902 12.1796841,7.8984393 12.8515625,7.5390625 C13.5234409,7.1796857 14.3164017,7 15.2304688,7 C16.1992236,7 17.0937459,7.22656023 17.9140625,7.6796875 C18.7343791,8.13281477 19.3691384,8.76366783 19.8183594,9.57226562 C20.2675804,10.3808634 20.4921875,11.2304643 20.4921875,12.1210938 C20.4921875,13.5351633 19.9863332,14.7441356 18.9746094,15.7480469 C17.9628856,16.7519581 16.7187574,17.2539062 15.2421875,17.2539062 C13.4843662,17.2539062 12.0585992,16.5390696 10.9648438,15.109375 L10.9648438,21.0390625 L13.3554688,21.0390625 C13.5898449,21.0390625 13.757812,21.0839839 13.859375,21.1738281 C13.960938,21.2636723 14.0117188,21.3828118 14.0117188,21.53125 C14.0117188,21.6718757 13.960938,21.789062 13.859375,21.8828125 C13.757812,21.976563 13.5898449,22.0234375 13.3554688,22.0234375 L8.65625,22.0234375 C8.42187383,22.0234375 8.25390676,21.9785161 8.15234375,21.8886719 C8.05078074,21.7988277 8,21.6796882 8,21.53125 C8,21.3828118 8.05078074,21.2636723 8.15234375,21.1738281 C8.25390676,21.0839839 8.42187383,21.0390625 8.65625,21.0390625 L9.98046875,21.0390625 L9.98046875,8.34765625 L8.65625,8.34765625 C8.42187383,8.34765625 8.25390676,8.30078172 8.15234375,8.20703125 C8.05078074,8.11328078 8,7.99218824 8,7.84375 C8,7.7031243 8.05078074,7.58593797 8.15234375,7.4921875 C8.25390676,7.39843703 8.42187383,7.3515625 8.65625,7.3515625 L10.9648438,7.3515625 Z M19.4960938,12.1210938 C19.4960938,10.9882756 19.0839885,10.0175822 18.2597656,9.20898438 C17.4355428,8.40038658 16.4296934,7.99609375 15.2421875,7.99609375 C14.046869,7.99609375 13.0351604,8.40233969 12.2070312,9.21484375 C11.3789021,10.0273478 10.9648438,10.9960881 10.9648438,12.1210938 C10.9648438,13.2539119 11.3789021,14.2265584 12.2070312,15.0390625 C13.0351604,15.8515666 14.046869,16.2578125 15.2421875,16.2578125 C16.4218809,16.2578125 17.4257771,15.8535197 18.2539062,15.0449219 C19.0820354,14.2363241 19.4960938,13.2617245 19.4960938,12.1210938 L19.4960938,12.1210938 Z" id="p" fill="#FFFFFF"></path>
    </g>
</svg>