<?xml version="1.0" encoding="UTF-8" standalone="no"?>
<svg width="28px" height="28px" viewBox="0 0 28 28" version="1.1" xmlns="http://www.w3.org/2000/svg" xmlns:xlink="http://www.w3.org/1999/xlink">
    <!-- Generator: Sketch 3.8.3 (29802) - http://www.bohemiancoding.com/sketch -->
    <title>GSL-marker</title>
    <desc>Created with Sketch.</desc>
    <defs></defs>
    <g id="Page-1" stroke="none" stroke-width="1" fill="none" fill-rule="evenodd">
        <path d="M16.1835938,12.453125 L15.9726562,15.546875 L17.859375,15.546875 C18.0937512,15.546875 18.2617182,15.5917964 18.3632812,15.6816406 C18.4648443,15.7714848 18.515625,15.8906243 18.515625,16.0390625 C18.515625,16.1875007 18.4648443,16.3066402 18.3632812,16.3964844 C18.2617182,16.4863286 18.0937512,16.53125 17.859375,16.53125 L15.9023438,16.53125 L15.515625,22.015625 C15.4999999,22.2500012 15.4472661,22.414062 15.3574219,22.5078125 C15.2675777,22.601563 15.1562507,22.6484375 15.0234375,22.6484375 L14.8242188,22.6015625 C14.6289053,22.4843744 14.53125,22.3242198 14.53125,22.1210938 L14.53125,21.9453125 L14.9179688,16.53125 L12.6914062,16.53125 L12.3164062,22.015625 C12.3007812,22.2500012 12.2460942,22.414062 12.1523438,22.5078125 C12.0585933,22.601563 11.9492194,22.6484375 11.8242188,22.6484375 L11.6132812,22.6015625 C11.4179678,22.4843744 11.3203125,22.3242198 11.3203125,22.1210938 L11.3320312,21.9453125 L11.7070312,16.53125 L9.65625,16.53125 C9.42187383,16.53125 9.25390676,16.4863286 9.15234375,16.3964844 C9.05078074,16.3066402 9,16.1875007 9,16.0390625 C9,15.8906243 9.05078074,15.7714848 9.15234375,15.6816406 C9.25390676,15.5917964 9.42187383,15.546875 9.65625,15.546875 L11.7773438,15.546875 L11.9882812,12.453125 L10.1601562,12.453125 C9.91796754,12.453125 9.74609426,12.4082036 9.64453125,12.3183594 C9.54296824,12.2285152 9.4921875,12.1093757 9.4921875,11.9609375 C9.4921875,11.8124993 9.54296824,11.6933598 9.64453125,11.6035156 C9.74609426,11.5136714 9.91796754,11.46875 10.1601562,11.46875 L12.0585938,11.46875 L12.4453125,5.984375 C12.4609376,5.75781137 12.5156245,5.59570361 12.609375,5.49804688 C12.7031255,5.40039014 12.8124994,5.3515625 12.9375,5.3515625 L13.1484375,5.3984375 C13.343751,5.52343812 13.4414062,5.67968656 13.4414062,5.8671875 L13.4296875,6.0546875 L13.0546875,11.46875 L15.2695312,11.46875 L15.65625,5.984375 C15.6718751,5.75781137 15.7246089,5.59570361 15.8144531,5.49804688 C15.9042973,5.40039014 16.0156243,5.3515625 16.1484375,5.3515625 L16.3476562,5.3984375 C16.5507823,5.52343812 16.6523438,5.67968656 16.6523438,5.8671875 L16.640625,6.0546875 L16.2539062,11.46875 L18.3515625,11.46875 C18.5859387,11.46875 18.7539057,11.5136714 18.8554688,11.6035156 C18.9570318,11.6933598 19.0078125,11.8124993 19.0078125,11.9609375 C19.0078125,12.1093757 18.9570318,12.2285152 18.8554688,12.3183594 C18.7539057,12.4082036 18.5859387,12.453125 18.3515625,12.453125 L16.1835938,12.453125 Z M15.1992188,12.453125 L12.984375,12.453125 L12.7617188,15.546875 L14.9882812,15.546875 L15.1992188,12.453125 Z" id="#" fill="#FFFFFF"></path>
    </g>
</svg>