<?xml version="1.0" encoding="UTF-8" standalone="no"?>
<svg width="17px" height="17px" viewBox="0 0 17 17" version="1.1" xmlns="http://www.w3.org/2000/svg" xmlns:xlink="http://www.w3.org/1999/xlink" xmlns:sketch="http://www.bohemiancoding.com/sketch/ns">
    <!-- Generator: Sketch 3.5.2 (25235) - http://www.bohemiancoding.com/sketch -->
    <title>gear</title>
    <desc>Created with Sketch.</desc>
    <defs></defs>
    <g id="Page-1" stroke="none" stroke-width="1" fill="none" fill-rule="evenodd" sketch:type="MSPage">
        <g id="Group" sketch:type="MSLayerGroup" fill="#E6E6E6">
            <path d="M16,9.75 L16,7.25 L13.98125,7.25 C13.838125,6.623125 13.59125,6.0375 13.25875,5.509375 L14.6875,4.080625 L12.91875,2.3125 L11.49,3.74125 C10.961875,3.40875 10.376875,3.16125 9.75,3.01875 L9.75,1 L7.25,1 L7.25,3.01875 C6.623125,3.16125 6.0375,3.409375 5.509375,3.741875 L4.080625,2.313125 L2.3125,4.080625 L3.741875,5.51 C3.40875,6.038125 3.161875,6.623125 3.01875,7.25 L1,7.25 L1,9.75 L3.01875,9.75 C3.161875,10.376875 3.40875,10.961875 3.74125,11.49 L2.3125,12.919375 L4.080625,14.6875 L5.509375,13.25875 C6.0375,13.590625 6.623125,13.83875 7.25,13.98125 L7.25,16 L9.75,16 L9.75,13.98125 C10.376875,13.83875 10.961875,13.59125 11.49,13.25875 L12.91875,14.6875 L14.68625,12.919375 L13.258125,11.490625 C13.590625,10.9625 13.838125,10.376875 13.980625,9.75 L16,9.75 L16,9.75 Z M8.5,11 C7.119375,11 6,9.880625 6,8.5 C6,7.119375 7.119375,6 8.5,6 C9.880625,6 11,7.119375 11,8.5 C11,9.880625 9.880625,11 8.5,11 L8.5,11 Z" id="Shape" sketch:type="MSShapeGroup"></path>
        </g>
    </g>
</svg>