<svg id="sbol-svg-lock" xmlns="http://www.w3.org/2000/svg" xmlns:xlink="http://www.w3.org/1999/xlink" x="0px" y="0px"
     viewBox="0 0 215.3 259.5">
    <title>lock</title>
    <g id="Page-1" stroke="none" stroke-width="1" fill="white">
        <path d="M193.5,107.9h-10.6V75.2c0-41.4-33.9-75.2-75.2-75.2C66.3,0,32.4,33.9,32.4,75.2v32.7H21.8c-12.1,0-21.9,9.9-21.9,21.9
			v107.7c0,12.1,9.9,21.9,21.9,21.9h171.6c12,0,21.9-9.9,21.9-21.9V129.9C215.4,117.8,205.5,107.9,193.5,107.9z M150.9,107.9H64.4
			V75.6c0-23.8,19.5-43.2,43.2-43.2c23.8,0,43.2,19.5,43.2,43.2V107.9z"></path>
    </g>
</svg>
